<?xml version="1.0" encoding="UTF-8"?>
<svg version="1.1" xmlns="http://www.w3.org/2000/svg" width="1024" height="1024">
<path d="M0 0 C337.92 0 675.84 0 1024 0 C1024 337.92 1024 675.84 1024 1024 C686.08 1024 348.16 1024 0 1024 C0 686.08 0 348.16 0 0 Z " fill="#D7D7D7" transform="translate(0,0)"/>
<path d="M0 0 C1.67098116 0.88128034 3.36019608 1.72773611 5.05029297 2.57177734 C18.72294607 9.5517597 31.1741844 18.92465966 42.77294922 28.93505859 C43.54123047 29.59248047 44.30951172 30.24990234 45.10107422 30.92724609 C56.54945001 40.97300631 67.62193391 51.74020877 76.77294922 63.93505859 C77.88089844 65.28277344 77.88089844 65.28277344 79.01123047 66.65771484 C109.10300405 103.8524908 125.18411066 151.62755482 125.08862305 199.14501953 C125.08548217 202.40090053 125.10892626 205.65585298 125.13427734 208.91162109 C125.17656737 222.82108634 124.11324728 236.22480781 121.77294922 249.93505859 C121.57419189 251.10649414 121.37543457 252.27792969 121.1706543 253.48486328 C120.67283433 256.19137837 120.12251922 258.87444139 119.52294922 261.56005859 C119.21260742 262.96626465 119.21260742 262.96626465 118.89599609 264.40087891 C116.12070633 276.42039185 112.20276221 288.1616904 106.77294922 299.24755859 C104.32998952 304.43081189 104.63870566 307.67337374 106.52685547 313.10302734 C112.05030507 330.3137761 109.43135741 349.64046037 101.27294922 365.56005859 C94.57516618 377.73857289 84.84990117 388.90414791 72.77294922 395.93505859 C71.8211377 396.17264893 70.86932617 396.41023926 69.88867188 396.6550293 C66.25717477 397.67270139 63.78463936 398.6389251 60.77294922 400.93505859 C57.73987931 406.36994786 57.13072798 412.94175284 56.14794922 418.99755859 C55.83898335 420.65666963 55.52521799 422.31489443 55.20654297 423.97216797 C54.45879399 427.92421082 53.77435173 431.88338983 53.11999512 435.85186768 C52.81305022 437.69434681 52.48636721 439.533514 52.15673828 441.37207031 C50.42980766 451.09516502 49.74822219 460.734333 49.56201172 470.59521484 C49.54757019 471.35845062 49.53312866 472.1216864 49.51824951 472.90805054 C49.46135837 476.06649693 49.4064892 479.22476934 49.37158203 482.38354492 C49.26078002 491.67085483 48.88751855 500.07451065 45.77294922 508.93505859 C45.41974609 510.05396484 45.06654297 511.17287109 44.70263672 512.32568359 C39.68113347 525.93953685 31.74508691 537.61085008 22.77294922 548.93505859 C22.03044922 549.88251953 21.28794922 550.82998047 20.52294922 551.80615234 C13.39582873 560.72742642 5.49509375 568.58422015 -3.22705078 575.93505859 C-4.02498047 576.62212891 -4.82291016 577.30919922 -5.64501953 578.01708984 C-28.81134844 597.55619443 -56.72260888 611.14782899 -86.22705078 617.93505859 C-87.38285645 618.23875366 -87.38285645 618.23875366 -88.56201172 618.54858398 C-97.07595613 620.59833899 -105.83352204 620.37583054 -114.53955078 620.37255859 C-115.3867569 620.37329376 -116.23396301 620.37402893 -117.10684204 620.37478638 C-130.43402347 620.34438959 -142.54558787 619.2925175 -155.22705078 614.93505859 C-156.01450684 614.68336914 -156.80196289 614.43167969 -157.61328125 614.17236328 C-175.47304316 608.44831139 -191.78818005 599.49116747 -207.22705078 588.93505859 C-207.80793457 588.54350586 -208.38881836 588.15195312 -208.98730469 587.74853516 C-217.04615761 582.29392023 -224.48305795 576.41977778 -231.47509766 569.63134766 C-232.74509106 568.40170521 -234.02356433 567.18080139 -235.30712891 565.96533203 C-255.97971571 546.36139763 -275.51181177 521.84589408 -276.51733398 492.02456665 C-276.5910956 489.03414768 -276.6461515 486.04379611 -276.69009399 483.05279541 C-277.05952605 459.38412891 -277.51728101 434.55463107 -285.22705078 411.93505859 C-285.64429168 409.81794735 -286.02037649 407.69225046 -286.35205078 405.56005859 C-286.51962891 404.50044922 -286.68720703 403.44083984 -286.85986328 402.34912109 C-286.98103516 401.55248047 -287.10220703 400.75583984 -287.22705078 399.93505859 C-287.77490234 399.83451172 -288.32275391 399.73396484 -288.88720703 399.63037109 C-304.49200402 395.92581766 -317.95086219 383.6407982 -326.59814453 370.57958984 C-335.99295351 355.3271062 -339.73863578 338.10648666 -336.58251953 320.29833984 C-334.68285296 312.39086077 -334.68285296 312.39086077 -333.22705078 310.93505859 C-332.83057235 306.90875172 -333.54024721 305.0018667 -335.85205078 301.74755859 C-343.70524009 289.20838604 -346.33916794 274.08041056 -348.84155273 259.71240234 C-349.1704906 257.8419603 -349.1704906 257.8419603 -350.22705078 255.93505859 C-356.51192635 224.10530786 -358.63533213 186.41507001 -350.22705078 154.93505859 C-349.98615723 153.99404297 -349.74526367 153.05302734 -349.49707031 152.08349609 C-347.32374918 143.68386617 -345.15171441 135.69264046 -341.22705078 127.93505859 C-340.71783232 126.49437202 -340.23121682 125.04558198 -339.76220703 123.59130859 C-332.49988014 101.07480059 -319.27581196 80.0152249 -304.22705078 61.93505859 C-303.42783203 60.95021484 -302.62861328 59.96537109 -301.80517578 58.95068359 C-291.12108102 45.90778887 -279.35333862 34.14504112 -265.796875 24.09912109 C-264.37913554 23.04783311 -262.97597923 21.97694783 -261.57470703 20.90380859 C-239.78519254 4.51970525 -215.7632366 -8.06579808 -189.77099609 -16.25830078 C-187.52314614 -16.97105474 -185.29298772 -17.72056109 -183.06298828 -18.48681641 C-123.99928381 -38.0741192 -54.36802134 -28.91488163 0 0 Z " fill="#E8E9E9" transform="translate(628.22705078125,176.06494140625)"/>
<path d="M0 0 C1.67098116 0.88128034 3.36019608 1.72773611 5.05029297 2.57177734 C18.72294607 9.5517597 31.1741844 18.92465966 42.77294922 28.93505859 C43.54123047 29.59248047 44.30951172 30.24990234 45.10107422 30.92724609 C56.54945001 40.97300631 67.62193391 51.74020877 76.77294922 63.93505859 C77.88089844 65.28277344 77.88089844 65.28277344 79.01123047 66.65771484 C109.10300405 103.8524908 125.18411066 151.62755482 125.08862305 199.14501953 C125.08548217 202.40090053 125.10892626 205.65585298 125.13427734 208.91162109 C125.17656737 222.82108634 124.11324728 236.22480781 121.77294922 249.93505859 C121.57419189 251.10649414 121.37543457 252.27792969 121.1706543 253.48486328 C120.67283433 256.19137837 120.12251922 258.87444139 119.52294922 261.56005859 C119.21260742 262.96626465 119.21260742 262.96626465 118.89599609 264.40087891 C116.12070633 276.42039185 112.20276221 288.1616904 106.77294922 299.24755859 C104.32998952 304.43081189 104.63870566 307.67337374 106.52685547 313.10302734 C112.05030507 330.3137761 109.43135741 349.64046037 101.27294922 365.56005859 C94.57516618 377.73857289 84.84990117 388.90414791 72.77294922 395.93505859 C71.8211377 396.17264893 70.86932617 396.41023926 69.88867188 396.6550293 C66.25717477 397.67270139 63.78463936 398.6389251 60.77294922 400.93505859 C57.73987931 406.36994786 57.13072798 412.94175284 56.14794922 418.99755859 C55.83898335 420.65666963 55.52521799 422.31489443 55.20654297 423.97216797 C54.45879399 427.92421082 53.77435173 431.88338983 53.11999512 435.85186768 C52.81305022 437.69434681 52.48636721 439.533514 52.15673828 441.37207031 C50.42980766 451.09516502 49.74822219 460.734333 49.56201172 470.59521484 C49.54757019 471.35845062 49.53312866 472.1216864 49.51824951 472.90805054 C49.46135837 476.06649693 49.4064892 479.22476934 49.37158203 482.38354492 C49.26078002 491.67085483 48.88751855 500.07451065 45.77294922 508.93505859 C45.41974609 510.05396484 45.06654297 511.17287109 44.70263672 512.32568359 C39.68113347 525.93953685 31.74508691 537.61085008 22.77294922 548.93505859 C22.03044922 549.88251953 21.28794922 550.82998047 20.52294922 551.80615234 C13.39582873 560.72742642 5.49509375 568.58422015 -3.22705078 575.93505859 C-4.02498047 576.62212891 -4.82291016 577.30919922 -5.64501953 578.01708984 C-28.81134844 597.55619443 -56.72260888 611.14782899 -86.22705078 617.93505859 C-87.38285645 618.23875366 -87.38285645 618.23875366 -88.56201172 618.54858398 C-97.07595613 620.59833899 -105.83352204 620.37583054 -114.53955078 620.37255859 C-115.3867569 620.37329376 -116.23396301 620.37402893 -117.10684204 620.37478638 C-130.43402347 620.34438959 -142.54558787 619.2925175 -155.22705078 614.93505859 C-156.01450684 614.68336914 -156.80196289 614.43167969 -157.61328125 614.17236328 C-175.47304316 608.44831139 -191.78818005 599.49116747 -207.22705078 588.93505859 C-207.80793457 588.54350586 -208.38881836 588.15195312 -208.98730469 587.74853516 C-217.04615761 582.29392023 -224.48305795 576.41977778 -231.47509766 569.63134766 C-232.74509106 568.40170521 -234.02356433 567.18080139 -235.30712891 565.96533203 C-255.97971571 546.36139763 -275.51181177 521.84589408 -276.51733398 492.02456665 C-276.5910956 489.03414768 -276.6461515 486.04379611 -276.69009399 483.05279541 C-277.05952605 459.38412891 -277.51728101 434.55463107 -285.22705078 411.93505859 C-285.64429168 409.81794735 -286.02037649 407.69225046 -286.35205078 405.56005859 C-286.51962891 404.50044922 -286.68720703 403.44083984 -286.85986328 402.34912109 C-286.98103516 401.55248047 -287.10220703 400.75583984 -287.22705078 399.93505859 C-287.77490234 399.83451172 -288.32275391 399.73396484 -288.88720703 399.63037109 C-304.49200402 395.92581766 -317.95086219 383.6407982 -326.59814453 370.57958984 C-335.99295351 355.3271062 -339.73863578 338.10648666 -336.58251953 320.29833984 C-334.68285296 312.39086077 -334.68285296 312.39086077 -333.22705078 310.93505859 C-332.83057235 306.90875172 -333.54024721 305.0018667 -335.85205078 301.74755859 C-343.70524009 289.20838604 -346.33916794 274.08041056 -348.84155273 259.71240234 C-349.1704906 257.8419603 -349.1704906 257.8419603 -350.22705078 255.93505859 C-356.51192635 224.10530786 -358.63533213 186.41507001 -350.22705078 154.93505859 C-349.98615723 153.99404297 -349.74526367 153.05302734 -349.49707031 152.08349609 C-347.32374918 143.68386617 -345.15171441 135.69264046 -341.22705078 127.93505859 C-340.71783232 126.49437202 -340.23121682 125.04558198 -339.76220703 123.59130859 C-332.49988014 101.07480059 -319.27581196 80.0152249 -304.22705078 61.93505859 C-303.42783203 60.95021484 -302.62861328 59.96537109 -301.80517578 58.95068359 C-291.12108102 45.90778887 -279.35333862 34.14504112 -265.796875 24.09912109 C-264.37913554 23.04783311 -262.97597923 21.97694783 -261.57470703 20.90380859 C-239.78519254 4.51970525 -215.7632366 -8.06579808 -189.77099609 -16.25830078 C-187.52314614 -16.97105474 -185.29298772 -17.72056109 -183.06298828 -18.48681641 C-123.99928381 -38.0741192 -54.36802134 -28.91488163 0 0 Z M-151.80029297 -0.60400391 C-154.62489223 0.02343223 -157.46028761 0.58551647 -160.29736328 1.15380859 C-181.40586061 5.54530852 -201.28701057 12.62790964 -220.22705078 22.93505859 C-221.36658203 23.53576172 -222.50611328 24.13646484 -223.68017578 24.75537109 C-249.07007347 38.609676 -272.72518242 58.89786441 -290.22705078 81.93505859 C-291.42394531 83.48193359 -291.42394531 83.48193359 -292.64501953 85.06005859 C-317.00078015 117.28292443 -328.21763279 157.03746325 -327.22705078 196.93505859 C-326.23705078 196.60505859 -325.24705078 196.27505859 -324.22705078 195.93505859 C-324.22705078 194.61505859 -324.22705078 193.29505859 -324.22705078 191.93505859 C-323.56705078 191.93505859 -322.90705078 191.93505859 -322.22705078 191.93505859 C-322.15228516 192.88123047 -322.07751953 193.82740234 -322.00048828 194.80224609 C-320.63565827 209.35174363 -316.46791902 223.18344107 -309.22705078 235.93505859 C-308.56705078 235.93505859 -307.90705078 235.93505859 -307.22705078 235.93505859 C-306.02075223 232.07465427 -305.95912242 228.1696407 -305.79736328 224.16162109 C-305.72359002 222.59779793 -305.64935555 221.03399647 -305.57470703 219.47021484 C-305.46235664 217.0310927 -305.35336521 214.59198697 -305.25292969 212.15234375 C-304.81664448 201.75598648 -303.81916855 192.05519535 -301.22705078 181.93505859 C-299.90705078 182.92505859 -298.58705078 183.91505859 -297.22705078 184.93505859 C-295.77527825 183.71493676 -295.77527825 183.71493676 -296.16113281 180.06811523 C-296.18178323 178.32709744 -296.2067007 176.58612733 -296.23486328 174.84521484 C-296.25242517 172.92529867 -296.26932886 171.00537639 -296.28564453 169.08544922 C-296.31620847 166.06907929 -296.35118181 163.05302211 -296.3984375 160.03686523 C-296.68439738 140.76991694 -295.5177053 121.36102094 -286.99658203 103.71240234 C-286.09460931 101.95196305 -286.09460931 101.95196305 -286.22705078 99.93505859 C-285.56705078 99.93505859 -284.90705078 99.93505859 -284.22705078 99.93505859 C-284.33146484 101.37945312 -284.33146484 101.37945312 -284.43798828 102.85302734 C-285.15531242 118.01087933 -281.60047983 132.24600132 -278.22705078 146.93505859 C-277.73383844 149.12753663 -277.24159688 151.32023336 -276.75048828 153.51318359 C-275.9149152 157.22962203 -275.06798832 160.94305951 -274.20751953 164.65380859 C-274.03365723 165.41717529 -273.85979492 166.18054199 -273.68066406 166.96704102 C-273.33973954 168.44615436 -272.97795288 169.92048361 -272.60595703 171.39208984 C-269.40757785 192.85750065 -273.88804489 214.7086174 -282.94970703 234.12646484 C-289.94499768 249.50754734 -294.9869217 265.95518869 -299.31079102 282.26147461 C-300.82470551 287.82605003 -302.73408417 293.17457316 -304.78955078 298.56005859 C-311.10120978 315.26819117 -315.97502535 332.43767892 -309.22705078 349.93505859 C-307.16441226 353.82096771 -304.80938035 357.37782708 -302.22705078 360.93505859 C-301.50517578 361.98693359 -300.78330078 363.03880859 -300.03955078 364.12255859 C-292.45764367 371.7044657 -283.71035937 377.17012751 -272.85205078 377.20849609 C-272.10955078 377.20076172 -271.36705078 377.19302734 -270.60205078 377.18505859 C-269.85181641 377.19279297 -269.10158203 377.20052734 -268.32861328 377.20849609 C-264.32124827 377.19428558 -261.73483161 376.73825517 -258.22705078 374.93505859 C-255.67948902 374.73997504 -253.27079173 374.65023339 -250.72705078 374.68505859 C-250.01798584 374.69182617 -249.3089209 374.69859375 -248.57836914 374.70556641 C-234.5924987 374.97649441 -223.82157633 377.66471755 -213.52392578 387.45068359 C-201.06208098 400.92982185 -201.78070151 416.99810895 -201.79125977 434.22314453 C-201.78770485 436.90876188 -201.76046128 439.59337029 -201.73095703 442.27880859 C-201.73913956 443.10376831 -201.74732208 443.92872803 -201.75575256 444.77868652 C-201.74029254 449.29413453 -201.74029254 449.29413453 -199.36743164 452.96435547 C-196.83072734 454.11479876 -194.98273181 454.16469868 -192.22705078 453.93505859 C-192.17806641 452.68208984 -192.12908203 451.42912109 -192.07861328 450.13818359 C-192.00356495 448.48712038 -191.92801801 446.83607978 -191.85205078 445.18505859 C-191.82111328 444.36005859 -191.79017578 443.53505859 -191.75830078 442.68505859 C-191.70029297 441.48623047 -191.70029297 441.48623047 -191.64111328 440.26318359 C-191.60969238 439.5300293 -191.57827148 438.796875 -191.54589844 438.04150391 C-191.1810382 435.6310796 -190.54152822 433.98656822 -189.22705078 431.93505859 C-186.60205078 431.18505859 -186.60205078 431.18505859 -184.22705078 430.93505859 C-181.22565611 434.2460342 -180.85065187 436.49009355 -180.82080078 440.90771484 C-180.79888672 442.05433594 -180.77697266 443.20095703 -180.75439453 444.38232422 C-180.73613582 446.7963865 -180.71790675 449.210449 -180.69970703 451.62451172 C-180.67779297 452.76984375 -180.65587891 453.91517578 -180.63330078 455.09521484 C-180.62621094 456.14330322 -180.61912109 457.1913916 -180.61181641 458.27124023 C-180.43733606 460.94411308 -180.43733606 460.94411308 -178.90087891 462.75708008 C-176.48628363 464.4563832 -174.11816609 464.61382356 -171.22705078 464.93505859 C-169.97232315 462.42560333 -170.0688786 460.61996652 -170.01611328 457.81396484 C-169.98775391 456.79625 -169.95939453 455.77853516 -169.93017578 454.72998047 C-169.87819103 452.5791114 -169.83389041 450.42804257 -169.79736328 448.27685547 C-169.76642578 447.25785156 -169.73548828 446.23884766 -169.70361328 445.18896484 C-169.68379395 444.25383057 -169.66397461 443.31869629 -169.64355469 442.35522461 C-169.15428386 439.51223416 -168.53840296 438.6166873 -166.22705078 436.93505859 C-163.03955078 436.24755859 -163.03955078 436.24755859 -160.22705078 435.93505859 C-158.40755291 439.83527385 -157.97715695 442.93599126 -157.95361328 447.22412109 C-157.92267578 449.00689453 -157.92267578 449.00689453 -157.89111328 450.82568359 C-157.86499063 453.32300933 -157.84681015 455.82043032 -157.83642578 458.31787109 C-157.81322266 459.50380859 -157.79001953 460.68974609 -157.76611328 461.91162109 C-157.75789551 462.99523926 -157.74967773 464.07885742 -157.74121094 465.1953125 C-157.46986699 468.03307138 -157.46986699 468.03307138 -155.39257812 469.82324219 C-152.34546269 471.38768003 -150.45231976 470.86680297 -147.22705078 469.93505859 C-145.92428827 467.32953357 -146.083749 465.36175126 -146.05126953 462.44677734 C-146.02742187 461.34785156 -146.00357422 460.24892578 -145.97900391 459.11669922 C-145.93625471 456.79917446 -145.90488549 454.48141008 -145.88525391 452.16357422 C-145.67132422 443.65116282 -145.67132422 443.65116282 -143.18408203 439.64208984 C-142.53826172 439.07876953 -141.89244141 438.51544922 -141.22705078 437.93505859 C-138.85205078 438.24755859 -138.85205078 438.24755859 -136.22705078 438.93505859 C-133.800252 442.57525676 -133.97475464 444.35165043 -133.95361328 448.68505859 C-133.93333037 450.02881701 -133.9124797 451.37256696 -133.89111328 452.71630859 C-133.86848426 454.82966281 -133.85202972 456.94268239 -133.84619141 459.05615234 C-133.83667753 461.09973191 -133.80292765 463.14181413 -133.76611328 465.18505859 C-133.75789551 466.40708984 -133.74967773 467.62912109 -133.74121094 468.88818359 C-133.50897408 471.99289293 -133.50897408 471.99289293 -131.41992188 473.83740234 C-128.25527839 475.42148574 -125.70702576 475.2572785 -122.22705078 474.93505859 C-119.38090712 472.08891493 -119.95751576 470.11545909 -119.91845703 466.13427734 C-119.89328728 464.75080977 -119.8678894 463.36734632 -119.84228516 461.98388672 C-119.81359872 459.80494347 -119.78958114 457.62607239 -119.77075195 455.44702148 C-119.74901033 453.34238477 -119.70955628 451.23861232 -119.66845703 449.13427734 C-119.65500244 447.87446045 -119.64154785 446.61464355 -119.62768555 445.31665039 C-119.20056523 441.71150501 -118.45002813 439.78117604 -116.22705078 436.93505859 C-113.72705078 436.37255859 -113.72705078 436.37255859 -111.22705078 436.93505859 C-107.00253689 441.15957249 -107.08598989 445.95818469 -106.91064453 451.66943359 C-106.84780273 453.61269531 -106.84780273 453.61269531 -106.78369141 455.59521484 C-106.74388407 456.95849336 -106.70417173 458.32177465 -106.66455078 459.68505859 C-106.62132804 461.06397735 -106.57771257 462.44288385 -106.53369141 463.82177734 C-106.4276112 467.1927705 -106.32555228 470.56383686 -106.22705078 473.93505859 C-103.17721082 475.45997857 -100.58471388 475.17068407 -97.22705078 474.93505859 C-95.3896128 473.93828091 -95.3896128 473.93828091 -94.22705078 471.93505859 C-93.75083307 468.59257118 -93.75083307 468.59257118 -93.78564453 464.74755859 C-93.77243668 464.04864502 -93.75922882 463.34973145 -93.74562073 462.62963867 C-93.70474582 460.39807137 -93.68306144 458.16691541 -93.66455078 455.93505859 C-93.6407527 453.70332744 -93.61261524 451.47198322 -93.57276917 449.24047852 C-93.53727638 447.21565366 -93.51740701 445.19057302 -93.49829102 443.16552734 C-93.22705078 439.93505859 -93.22705078 439.93505859 -91.22705078 436.93505859 C-88.60205078 436.74755859 -88.60205078 436.74755859 -86.22705078 436.93505859 C-81.83404844 444.03415037 -81.576571 450.20202248 -81.47705078 458.43505859 C-81.44740234 459.63904297 -81.41775391 460.84302734 -81.38720703 462.08349609 C-81.31695497 465.03408252 -81.26403593 467.98389916 -81.22705078 470.93505859 C-77.1253353 471.90543088 -75.02408571 471.93904925 -71.22705078 469.93505859 C-69.81546671 467.11189044 -70.0263908 464.65497798 -69.94580078 461.50146484 C-69.90841797 460.21304687 -69.87103516 458.92462891 -69.83251953 457.59716797 C-69.79683837 456.23064512 -69.76168795 454.86410831 -69.72705078 453.49755859 C-69.65931135 450.8319805 -69.58555717 448.1668102 -69.50830078 445.50146484 C-69.47800781 444.31496338 -69.44771484 443.12846191 -69.41650391 441.90600586 C-69.22705078 438.93505859 -69.22705078 438.93505859 -68.22705078 435.93505859 C-64.91455078 436.12255859 -64.91455078 436.12255859 -61.22705078 436.93505859 C-58.01679439 440.89437482 -57.17504832 445.05853362 -56.91064453 450.04443359 C-56.86875 450.79853516 -56.82685547 451.55263672 -56.78369141 452.32958984 C-56.7247168 453.49554687 -56.7247168 453.49554687 -56.66455078 454.68505859 C-56.62136719 455.47783203 -56.57818359 456.27060547 -56.53369141 457.08740234 C-56.42802087 459.03643674 -56.32707112 460.98572607 -56.22705078 462.93505859 C-52.57608024 463.86577923 -52.57608024 463.86577923 -48.97705078 463.12255859 C-47.07630154 462.04106491 -47.07630154 462.04106491 -46.22705078 459.93505859 C-46.09725856 458.08492609 -46.02454823 456.23063207 -45.98095703 454.37646484 C-45.94808594 453.26851562 -45.91521484 452.16056641 -45.88134766 451.01904297 C-45.82025407 448.67538899 -45.76294925 446.33163312 -45.70947266 443.98779297 C-45.6753125 442.87855469 -45.64115234 441.76931641 -45.60595703 440.62646484 C-45.58090088 439.6075415 -45.55584473 438.58861816 -45.5300293 437.53881836 C-45.22705078 434.93505859 -45.22705078 434.93505859 -43.22705078 431.93505859 C-40.35205078 432.24755859 -40.35205078 432.24755859 -37.22705078 432.93505859 C-35.22972786 435.93104298 -34.915984 436.95998367 -34.59423828 440.38427734 C-34.51044922 441.23183594 -34.42666016 442.07939453 -34.34033203 442.95263672 C-34.26169922 443.83371094 -34.18306641 444.71478516 -34.10205078 445.62255859 C-34.01568359 446.51523437 -33.92931641 447.40791016 -33.84033203 448.32763672 C-33.628387 450.5295101 -33.42426067 452.73182469 -33.22705078 454.93505859 C-29.85242363 454.38782176 -28.14470079 453.8801586 -25.22705078 451.93505859 C-24.93706586 449.28623541 -24.83415999 446.85889544 -24.85595703 444.20849609 C-24.8385311 442.6017236 -24.82094739 440.99495282 -24.80322266 439.38818359 C-24.79328091 436.87219336 -24.78951876 434.3563408 -24.79125977 431.84033203 C-24.76884986 416.88246723 -24.08372221 402.0331101 -14.22705078 389.93505859 C-13.62892578 389.04818359 -13.03080078 388.16130859 -12.41455078 387.24755859 C-0.95682358 375.13510412 14.46704227 375.42107661 30.03564453 374.97924805 C30.89561035 374.95737427 30.89561035 374.95737427 31.77294922 374.93505859 C31.77294922 375.92505859 31.77294922 376.91505859 31.77294922 377.93505859 C44.8021942 378.45545743 56.53432513 377.72953679 66.77294922 368.93505859 C77.30836283 358.91863087 83.70300079 346.76270246 84.14794922 332.06005859 C83.7333986 319.9766757 79.54509542 309.35170678 75.38891602 298.14672852 C72.42419172 290.04338734 69.94566363 281.87508556 67.64794922 273.56005859 C63.96730675 260.32575241 59.67924742 247.60760907 54.21826172 235.00146484 C42.82591517 208.68299638 38.30951132 179.04003003 48.71044922 151.37255859 C54.3555249 135.28263843 55.28443251 118.8646895 55.77294922 101.93505859 C60.10993362 110.07433069 63.92079774 117.8167744 65.77294922 126.93505859 C65.94785889 127.75973633 66.12276855 128.58441406 66.30297852 129.43408203 C66.93285126 134.126225 66.8562726 138.72315304 66.80029297 143.45068359 C66.78764254 145.52750482 66.77528189 147.60432783 66.76318359 149.68115234 C66.73843571 152.93072158 66.71049934 156.18019626 66.67700195 159.4296875 C66.64657101 162.58252521 66.62895346 165.73524476 66.61279297 168.88818359 C66.59933334 169.84581604 66.58587372 170.80344849 66.57200623 171.7901001 C66.55174594 177.31188804 67.06775113 182.36227002 68.3109436 187.74682617 C69.00751723 191.04606095 69.09530996 194.32159649 69.21044922 197.68505859 C69.85831255 210.72716444 73.44055757 222.70846715 77.77294922 234.93505859 C81.37021357 233.13642642 82.15411968 228.71943856 83.58544922 225.12255859 C83.94002197 224.23777832 84.29459473 223.35299805 84.65991211 222.44140625 C87.78576654 214.38481668 89.9418296 206.21574137 91.86279297 197.80224609 C92.77294922 193.93505859 92.77294922 193.93505859 93.77294922 191.93505859 C94.76294922 191.93505859 95.75294922 191.93505859 96.77294922 191.93505859 C97.51070136 161.97475494 91.97272442 134.20250228 76.77294922 107.93505859 C76.35787109 107.2102832 75.94279297 106.48550781 75.51513672 105.73876953 C67.86620961 92.50411276 59.30685094 80.53223322 48.92529297 69.27490234 C46.80578308 66.97075275 44.7585958 64.61510425 42.71044922 62.24755859 C39.68326034 58.84642285 36.54304533 55.78455167 33.05810547 52.85693359 C31.37296948 51.43969102 29.71830295 49.98603002 28.08154297 48.51318359 C5.44793032 28.32493906 -22.28059674 14.39249348 -51.22705078 5.93505859 C-52.78452445 5.45126913 -54.34182793 4.96693128 -55.89892578 4.48193359 C-85.27187099 -4.31064683 -121.61248466 -7.33913245 -151.80029297 -0.60400391 Z " fill="#020303" transform="translate(628.22705078125,176.06494140625)"/>
<path d="M0 0 C0.08636719 0.77859375 0.17273438 1.5571875 0.26171875 2.359375 C2.06857368 16.74790783 5.95203672 30.61041434 10.05859375 44.4921875 C10.72976265 46.99305752 11.30111134 49.41065506 11.78515625 51.9453125 C13.62844417 61.51295975 16.40851842 70.44774539 19.875 79.5625 C20.28572754 80.6565918 20.69645508 81.75068359 21.11962891 82.87792969 C24.61639177 91.81486179 29.07396242 99.22037753 35.5625 106.3125 C36.28566406 107.11300781 37.00882812 107.91351562 37.75390625 108.73828125 C40.04827408 111.0486099 42.36646219 113.08509813 45 115 C45.66 115 46.32 115 47 115 C46.79503906 114.443125 46.59007812 113.88625 46.37890625 113.3125 C46.10949219 112.549375 45.84007812 111.78625 45.5625 111 C45.29566406 110.2575 45.02882813 109.515 44.75390625 108.75 C42.62774607 100.99447273 42.84735832 93.10423164 42.875 85.125 C42.86919922 83.41570312 42.86919922 83.41570312 42.86328125 81.671875 C42.86457031 80.58648438 42.86585938 79.50109375 42.8671875 78.3828125 C42.86831543 77.39684082 42.86944336 76.41086914 42.87060547 75.39501953 C43 73 43 73 44 71 C47.56523819 71.61118369 50.66273931 72.62022499 54 74 C54.029729 74.91495239 54.029729 74.91495239 54.06005859 75.84838867 C54.15567876 78.62850533 54.26520705 81.40790846 54.375 84.1875 C54.4059375 85.14720703 54.436875 86.10691406 54.46875 87.09570312 C54.50742187 88.02705078 54.54609375 88.95839844 54.5859375 89.91796875 C54.6173584 90.77156982 54.6487793 91.6251709 54.68115234 92.50463867 C55.03349578 95.26214422 55.87071247 97.46999969 57 100 C59.31 100.33 61.62 100.66 64 101 C65.14654482 98.70691037 65.19729117 97.20090344 65.31640625 94.6484375 C65.35830078 93.79765625 65.40019531 92.946875 65.44335938 92.0703125 C65.48267578 91.18085937 65.52199219 90.29140625 65.5625 89.375 C65.62727539 88.02921875 65.62727539 88.02921875 65.69335938 86.65625 C65.79956861 84.43765717 65.90161194 82.2189512 66 80 C69.17824175 79.7833017 71.33939868 79.63802464 74.17163086 81.18994141 C76 83 76 83 76.49829102 85.37255859 C76.50014404 86.28859863 76.50199707 87.20463867 76.50390625 88.1484375 C76.53194336 89.65664063 76.53194336 89.65664063 76.56054688 91.1953125 C76.56119141 92.24460937 76.56183594 93.29390625 76.5625 94.375 C76.24270028 103.26009446 76.24270028 103.26009446 80 111 C82.93443402 110.73343428 82.93443402 110.73343428 86 110 C88.09023686 106.86464471 88.26839636 105.96533251 88.37890625 102.3671875 C88.41306641 101.47902344 88.44722656 100.59085938 88.48242188 99.67578125 C88.50884766 98.75152344 88.53527344 97.82726562 88.5625 96.875 C88.62217882 95.03892384 88.68576588 93.2029691 88.75390625 91.3671875 C88.78979858 90.14684814 88.78979858 90.14684814 88.82641602 88.90185547 C89 87 89 87 90 86 C97.60344828 86.60344828 97.60344828 86.60344828 100 89 C100.27124023 91.15136719 100.27124023 91.15136719 100.30859375 93.796875 C100.33373047 94.7559375 100.35886719 95.715 100.38476562 96.703125 C100.41965041 98.71869037 100.45095752 100.73432114 100.47851562 102.75 C100.63115168 108.31935459 100.97845193 112.26221262 104 117 C107.63017679 117.33052986 107.63017679 117.33052986 110.75 115.6875 C112.99689147 112.65419651 113.16166747 109.76069545 113.31640625 106.11328125 C113.35830078 105.17548828 113.40019531 104.23769531 113.44335938 103.27148438 C113.48267578 102.29501953 113.52199219 101.31855469 113.5625 100.3125 C113.62727539 98.83040039 113.62727539 98.83040039 113.69335938 97.31835938 C113.79941542 94.87907028 113.90020974 92.43955346 114 90 C117.63 90.33 121.26 90.66 125 91 C125.05607422 93.16949219 125.05607422 93.16949219 125.11328125 95.3828125 C125.17896073 97.29690008 125.24540738 99.21096144 125.3125 101.125 C125.33505859 102.07632813 125.35761719 103.02765625 125.38085938 104.0078125 C125.59245097 109.54766504 125.81825655 114.81825655 130 119 C132.37221956 119.50135199 132.37221956 119.50135199 135 119 C137.73159614 116.74127686 138.86830307 114.84790107 139.41333008 111.33886719 C139.61854994 108.11770767 139.70850258 104.91486782 139.75 101.6875 C139.77964844 100.56537109 139.80929687 99.44324219 139.83984375 98.28710938 C139.91036253 95.52512386 139.95746639 92.76255819 140 90 C143.96 90 147.92 90 152 90 C152.05607422 92.65482422 152.05607422 92.65482422 152.11328125 95.36328125 C152.178929 97.67970912 152.24537674 99.99611442 152.3125 102.3125 C152.33505859 103.47974609 152.35761719 104.64699219 152.38085938 105.84960938 C152.41630859 106.96787109 152.45175781 108.08613281 152.48828125 109.23828125 C152.52755737 110.7857605 152.52755737 110.7857605 152.56762695 112.36450195 C152.79399613 115.02933053 152.79399613 115.02933053 154.41088867 116.86010742 C155.93644734 118.18821736 155.93644734 118.18821736 157.9375 118 C161.1049834 116.46425047 162.15438457 115.0559783 164 112 C164.63717206 108.06921336 164.69655992 104.16392763 164.75 100.1875 C164.77964844 99.11306641 164.80929687 98.03863281 164.83984375 96.93164062 C164.91034921 94.28768573 164.96314143 91.6446027 165 89 C168.89663652 87.31389152 171.73566065 86.80165863 176 87 C176.01981934 87.62044189 176.03963867 88.24088379 176.06005859 88.88012695 C176.15531845 91.69134537 176.26499302 94.50182166 176.375 97.3125 C176.42140625 98.77719727 176.42140625 98.77719727 176.46875 100.27148438 C176.50742187 101.20927734 176.54609375 102.14707031 176.5859375 103.11328125 C176.6173584 103.97735596 176.6487793 104.84143066 176.68115234 105.73168945 C176.87188037 108.27742445 176.87188037 108.27742445 179 111 C182.40614946 110.97873538 182.40614946 110.97873538 186 110 C189.81782106 104.69747075 189.5456972 98.90483809 189.6875 92.625 C189.72166016 91.60277344 189.75582031 90.58054687 189.79101562 89.52734375 C189.87308588 87.01833886 189.94236876 84.50966535 190 82 C195.45769231 78.89903846 195.45769231 78.89903846 198.203125 79.41015625 C198.79609375 79.60480469 199.3890625 79.79945313 200 80 C200.04898438 81.26457031 200.09796875 82.52914062 200.1484375 83.83203125 C200.2234738 85.49220947 200.29902127 87.15236464 200.375 88.8125 C200.42140625 90.06256836 200.42140625 90.06256836 200.46875 91.33789062 C200.50742187 92.14033203 200.54609375 92.94277344 200.5859375 93.76953125 C200.6173584 94.50792236 200.6487793 95.24631348 200.68115234 96.00708008 C200.90834614 98.31349588 200.90834614 98.31349588 203 101 C206.66464055 100.5047783 208.70832354 99.9791794 211 97 C211.95168683 94.14493951 212.1900946 92.09062718 212.31640625 89.11328125 C212.35830078 88.17548828 212.40019531 87.23769531 212.44335938 86.27148438 C212.48267578 85.29501953 212.52199219 84.31855469 212.5625 83.3125 C212.62727539 81.83040039 212.62727539 81.83040039 212.69335938 80.31835938 C212.79941654 77.87904454 212.90147714 75.43962887 213 73 C216.82813079 71.33001006 218.94046179 70.6468206 223 72 C224.95072223 75.90144446 224.19010742 80.77328811 224.1875 85.0625 C224.18814453 86.13693359 224.18878906 87.21136719 224.18945312 88.31835938 C224.13041882 97.32914089 223.35443284 106.09944135 222 115 C229.25286041 107.86716329 234.18446064 100.24324314 238.82519531 91.26220703 C239.66988625 89.63566792 240.54250819 88.02352224 241.43261719 86.42138672 C246.011157 77.87857263 248.47239562 69.19781341 250.875 59.875 C251.30141703 58.25822778 251.72842923 56.64161242 252.15600586 55.02514648 C259.41830258 27.69682393 259.41830258 27.69682393 265 0 C268.96 0.66 272.92 1.32 277 2 C276.73445313 3.95679688 276.46890625 5.91359375 276.1953125 7.9296875 C275.36645892 14.06124454 274.55097709 20.19444054 273.74705505 26.32931519 C273.28586352 29.84647679 272.81246342 33.36150728 272.32421875 36.875 C270.94865339 47.3074071 270.71666554 57.74850636 270.44491577 68.25460815 C269.70962666 96.18225492 269.70962666 96.18225492 265 107 C264.67386719 107.76054688 264.34773438 108.52109375 264.01171875 109.3046875 C258.28208384 121.63029387 249.87636987 131.79094247 240.4921875 141.4609375 C239.07669369 142.92089708 237.67843885 144.39751294 236.28125 145.875 C225.52457751 157.01131975 213.28442299 166.10571879 200 174 C199.14100098 174.51191895 199.14100098 174.51191895 198.26464844 175.03417969 C171.76603343 190.56477569 138.54975417 199.8050423 108 192 C80.26481763 184.16013408 56.72959897 172.06287236 35.51171875 152.328125 C33.40068217 150.37139436 31.25553541 148.48794967 29.0625 146.625 C15.54898427 134.8041423 5.48309794 122.38191711 -2 106 C-2.37382812 105.18273437 -2.74765625 104.36546875 -3.1328125 103.5234375 C-4.90544708 98.36523057 -5.12244541 92.99750369 -5.2109375 87.58203125 C-5.23720215 86.34549805 -5.2634668 85.10896484 -5.29052734 83.83496094 C-5.30380066 83.1810437 -5.31707397 82.52712646 -5.33074951 81.85339355 C-5.96950456 41.51546577 -5.96950456 41.51546577 -13 2 C-11.39658445 1.66307215 -9.79223445 1.33058907 -8.1875 1 C-7.29417969 0.814375 -6.40085937 0.62875 -5.48046875 0.4375 C-3 0 -3 0 0 0 Z " fill="#E9E9E9" transform="translate(382,578)"/>
<path d="M0 0 C9.11977201 7.23648104 13.12959646 15.29503938 16.76171875 26.19140625 C18.87379922 47.41915173 12.24383191 63.23499569 -0.3125 79.953125 C-13.61804134 95.84960339 -34.18754436 103.13839019 -54.23828125 105.19140625 C-71.68543258 106.38682262 -87.68619582 104.68417854 -101.48828125 93.00390625 C-111.89803508 83.05100682 -116.07458929 70.30105264 -116.71118164 56.12695312 C-116.94706302 38.73548243 -110.4707749 21.8371302 -98.49560547 9.25073242 C-73.59483141 -15.67119418 -29.09163896 -20.64935942 0 0 Z " fill="#010101" transform="translate(466.23828125,401.80859375)"/>
<path d="M0 0 C11.86894951 9.82014275 20.41957888 23.29895704 23.78125 38.37890625 C24.07831165 41.94580645 24.11514181 45.48847277 24.09375 49.06640625 C24.08811035 50.04448242 24.0824707 51.02255859 24.07666016 52.03027344 C23.83515224 66.42031914 20.07936551 76.89949232 10.28125 87.56640625 C-2.45607895 99.74743619 -17.92753475 102.01539028 -34.890625 101.69140625 C-42.38086121 101.37062526 -49.13098869 99.73904254 -56.21875 97.37890625 C-56.84974609 97.16991699 -57.48074219 96.96092773 -58.13085938 96.74560547 C-76.15162927 90.61468605 -92.61251604 79.76212897 -101.71484375 62.56640625 C-102.21113281 61.51453125 -102.70742188 60.46265625 -103.21875 59.37890625 C-103.72535156 58.30640625 -104.23195313 57.23390625 -104.75390625 56.12890625 C-109.83764898 43.44079069 -111.13931662 26.44131439 -106.21875 13.50390625 C-104.8125 10.8359375 -104.8125 10.8359375 -103.21875 8.37890625 C-102.6721875 7.51652344 -102.125625 6.65414063 -101.5625 5.765625 C-92.87909695 -6.35802459 -80.77126532 -12.17506762 -66.48828125 -15.19921875 C-43.00964695 -18.22871995 -19.31393745 -14.11141556 0 0 Z " fill="#010101" transform="translate(653.21875,405.62109375)"/>
<path d="M0 0 C11.29118693 4.87917447 15.57329706 17.79222954 19.82699585 28.5171814 C21.46968808 32.8517637 23.01162508 37.22034383 24.52563477 41.60131836 C25.30189267 43.8461189 26.09047716 46.08630987 26.88085938 48.32617188 C27.39003595 49.78100064 27.89852505 51.23607024 28.40625 52.69140625 C28.6364534 53.34676865 28.8666568 54.00213104 29.10383606 54.67735291 C33.19513526 66.55950115 35.81246506 79.49323173 30.25390625 91.359375 C27.52025623 95.70302748 23.67785262 98.38079096 18.98046875 100.3828125 C13.87304208 101.1834817 10.09182732 101.04139535 5.60546875 98.3828125 C-0.0490292 91.92052913 -1.95887177 84.63896423 -3.76953125 76.3828125 C-3.98996094 75.41730469 -4.21039062 74.45179688 -4.4375 73.45703125 C-4.97405133 71.10087106 -5.50115478 68.74302535 -6.01953125 66.3828125 C-6.09469971 66.97707031 -6.16986816 67.57132813 -6.24731445 68.18359375 C-6.59895547 70.91804786 -6.96538986 73.65033087 -7.33203125 76.3828125 C-7.44998047 77.31738281 -7.56792969 78.25195312 -7.68945312 79.21484375 C-8.82953345 87.57543277 -10.19873237 94.75565343 -17.01953125 100.3828125 C-21.1975829 101.77549638 -24.6692599 102.30767334 -29.01953125 101.3828125 C-35.07969032 97.83563805 -39.22836073 92.85001463 -41.4296875 86.1953125 C-44.94339431 69.44121379 -38.13720248 53.3213746 -32.70703125 37.7578125 C-32.36785172 36.77592453 -32.36785172 36.77592453 -32.02182007 35.77420044 C-21.82798676 6.4309332 -21.82798676 6.4309332 -11.015625 0.234375 C-7.31352822 -1.3449931 -3.82315668 -1.16839218 0 0 Z " fill="#020202" transform="translate(519.01953125,474.6171875)"/>
<path d="M0 0 C1.38952881 0.01450195 1.38952881 0.01450195 2.80712891 0.02929688 C19.49903824 0.21329735 36.12184572 0.79437118 52.75 2.3125 C54.59005615 2.47069214 54.59005615 2.47069214 56.46728516 2.63208008 C63.19784532 3.32606505 68.1738994 4.52012464 74 8 C74.375 10.25 74.375 10.25 74 13 C67.04110896 19.08902966 57.82430461 19.41777015 49 20.0625 C47.8744873 20.14483887 46.74897461 20.22717773 45.58935547 20.31201172 C28.41265278 21.46934792 11.21024353 21.78121146 -6 22 C-7.64143982 22.02157166 -7.64143982 22.02157166 -9.31604004 22.0435791 C-38.51846362 22.41032691 -67.64301209 22.21745007 -96.8125 20.6875 C-97.98514404 20.62864624 -99.15778809 20.56979248 -100.3659668 20.50915527 C-133.37933382 18.80607549 -133.37933382 18.80607549 -138.86645508 14.5534668 C-140 13 -140 13 -140.25 10.5625 C-138.21836686 6.39765207 -134.23134191 5.47282892 -130 4 C-127.00301269 3.33746371 -124.04267763 3.04449054 -120.984375 2.8203125 C-120.12817566 2.74668488 -119.27197632 2.67305725 -118.38983154 2.59719849 C-107.36137443 1.70149313 -96.30580801 1.26543035 -85.25 0.875 C-84.09969299 0.83297455 -82.94938599 0.7909491 -81.76422119 0.74765015 C-54.51021601 -0.22825441 -27.26724321 -0.29920486 0 0 Z " fill="#4E4E4E" transform="translate(546,850)"/>
<path d="M0 0 C5.43028331 1.77528493 8.91770954 5.28775254 12 10 C12.8125 12.5625 12.8125 12.5625 12 15 C9.29490991 18.08831118 6.44474253 20.48137448 2.5625 21.875 C1.2940625 21.936875 1.2940625 21.936875 0 22 C-1.27875 22.0825 -2.5575 22.165 -3.875 22.25 C-9.35009171 22.15702674 -13.42032298 20.42170931 -17.5 16.75 C-19 14 -19 14 -19.25 10.625 C-16.12983415 1.57651903 -9.12588733 -1.64388879 0 0 Z " fill="#060606" transform="translate(518,722)"/>
<path d="M0 0 C3.52111278 3.72231922 5.0021605 6.03571679 5.75 11.1875 C5.59507714 15.49272477 3.73669375 17.77675931 0.890625 20.8671875 C-1.66162759 23.03308993 -3.7431778 24.3125 -7.125 24.3125 C-13.15700514 22.06803297 -17.97001408 16.99747183 -20.8125 11.3125 C-21.36180204 8.33947347 -21.2176337 6.40164445 -20.8125 3.3125 C-16.03094763 -2.20467581 -6.14349973 -3.68609984 0 0 Z " fill="#060707" transform="translate(446.8125,526.6875)"/>
<path d="M0 0 C3.50386447 1.38988244 6.74832109 3.09922736 10 5 C9.80877193 12.45789479 4.50682793 17.49317207 -0.5 22.5 C-3.85405775 24.51243465 -6.07616876 25.14013683 -10 25 C-12.8125 22.3125 -12.8125 22.3125 -15 19 C-15.433125 18.360625 -15.86625 17.72125 -16.3125 17.0625 C-17.41300476 13.76098573 -17.47006224 11.46670902 -17 8 C-12.50967627 1.04413042 -8.20801041 -1.16023004 0 0 Z " fill="#060707" transform="translate(594,526)"/>
<path d="M0 0 C4.3974211 1.54596835 7.55317288 4.30720977 10.5 7.87890625 C11.44625185 12.37360254 10.88252702 14.17980514 8.6875 18.19140625 C5.95065849 21.55381154 4.47050363 22.77107251 0.125 23.25390625 C-4.10889829 22.81591677 -5.56582535 21.89691447 -8.5 18.87890625 C-10.70384386 15.94044777 -11.15767653 12.64676218 -11.08203125 8.98828125 C-10.0771105 5.34628659 -7.52674396 3.43111339 -4.73828125 1.03125 C-2.5 -0.12109375 -2.5 -0.12109375 0 0 Z " fill="#050606" transform="translate(514.5,197.12109375)"/>
<path d="M0 0 C3.66195958 2.07280731 5.66024277 3.49036416 8 7 C7.76872694 11.39418811 5.9208775 13.81358818 3 17 C-0.10953379 18.5547669 -2.56266761 18.28644437 -6 18 C-10.31348591 15.76030539 -13.11802114 13.5388902 -15 9 C-14.91827777 5.64938873 -14.27520898 4.33025078 -12.125 1.75 C-8.05331169 -1.60315508 -4.95450016 -1.09166953 0 0 Z " fill="#080809" transform="translate(453,320)"/>
<path d="M0 0 C3.375 2.125 3.375 2.125 6 5 C6.8116783 8.89605586 6.3834108 10.39749731 4.25 13.75 C0.75038858 17.24961142 -0.95195354 17.88355039 -5.9375 18.4375 C-9.51161538 18.37081874 -9.97208019 18.02316751 -12.9375 15.5625 C-13.618125 14.716875 -14.29875 13.87125 -15 13 C-15.33 12.67 -15.66 12.34 -16 12 C-16.4375 9.75 -16.4375 9.75 -16 7 C-11.11452247 2.22555605 -6.98660615 -0.97812486 0 0 Z " fill="#070808" transform="translate(582,320)"/>
<path d="M0 0 C4.57627119 3.15254237 4.57627119 3.15254237 6 6 C6.38503376 9.54231061 6.41935959 11.36257342 4.4375 14.375 C1.03503891 16.64330739 -0.97718758 16.55487068 -5 16 C-8.10039543 14.24505919 -10.48825667 12.51174333 -13 10 C-13 6.625 -13 6.625 -12 3 C-7.95211482 -0.76547459 -5.27532938 -1.79585681 0 0 Z " fill="#060707" transform="translate(453,705)"/>
<path d="M0 0 C3.5386994 1.65139305 4.81070153 2.71605229 7 6 C7 9.78299436 6.01235583 10.98643873 3.4375 13.8125 C0.93082669 15.72119582 -0.97892887 16.39784581 -4.125 16.5625 C-8 16 -8 16 -10.5 14.4375 C-12.61006839 11.00863886 -12.62491523 8.95779649 -12 5 C-8.55801715 0.097782 -5.87587932 -0.83941133 0 0 Z " fill="#060606" transform="translate(582,705)"/>
<path d="M0 0 C2.32826348 2.32826348 2.75133003 3.94822653 3.75 7.0625 C7.29399934 16.9212618 11.46986902 22.30840792 20.609375 27.58984375 C23 29 23 29 25 31 C17.71658766 31.82232075 13.96825458 30.47054772 8.16796875 25.9921875 C2.57551116 20.85317242 0.23254079 13.97637284 -0.1171875 6.4921875 C-0.12398567 4.32357284 -0.09027255 2.16654114 0 0 Z " fill="#101111" transform="translate(327,499)"/>
<path d="M0 0 C0.33 0 0.66 0 1 0 C2.02633722 8.59082268 -0.3049416 14.81749344 -5 22 C-8.99107836 26.7353354 -13.95245463 29.66245216 -20 31 C-22.72520299 31.209631 -25.26025933 31.14677182 -28 31 C-25.62425286 28.62425286 -23.35639828 27.67074048 -20.3125 26.25 C-9.46599297 20.87221088 -5.08898098 15.32143928 -1.25 4 C-0.82719107 2.66860168 -0.40820627 1.3359478 0 0 Z " fill="#0D0E0E" transform="translate(700,500)"/>
<path d="M0 0 C0 0.33 0 0.66 0 1 C-6.435 2.98 -6.435 2.98 -13 5 C-13.33 6.65 -13.66 8.3 -14 10 C-9.28441217 13.54413654 -4.3694391 13.95266265 1.3125 14.6875 C2.24384766 14.81705078 3.17519531 14.94660156 4.13476562 15.08007812 C6.42200097 15.39677225 8.7101301 15.70306482 11 16 C11 16.33 11 16.66 11 17 C3.34108718 17.23687359 -3.54625306 16.7312781 -11 15 C-12.99810662 14.65549886 -14.99722415 14.31622777 -17 14 C-17.29354096 10.94717403 -17.4251429 8.04423312 -17 5 C-12.03662107 -0.51486548 -6.92044779 -0.1153408 0 0 Z " fill="#E8E9E9" transform="translate(421,853)"/>
<path d="M0 0 C0.99 0.33 1.98 0.66 3 1 C0.86096579 5.81282698 -2.16541985 9.41212912 -6.25 12.6875 C-7.61125 13.8321875 -7.61125 13.8321875 -9 15 C-9 15.66 -9 16.32 -9 17 C-10.96147874 18.38938077 -12.96166576 19.7260411 -15 21 C-15.66 20.67 -16.32 20.34 -17 20 C-16.443125 19.39414062 -15.88625 18.78828125 -15.3125 18.1640625 C-9.96200371 12.28936219 -4.89008959 6.26251255 0 0 Z " fill="#E9E9EA" transform="translate(649,726)"/>
<path d="M0 0 C0.33 0 0.66 0 1 0 C1 5.28 1 10.56 1 16 C-2 16 -2 16 -5 14 C-5.29296875 11.8359375 -5.29296875 11.8359375 -5.1875 9.375 C-5.16042969 8.55773437 -5.13335937 7.74046875 -5.10546875 6.8984375 C-5.07066406 6.27195312 -5.03585937 5.64546875 -5 5 C-4.01 4.67 -3.02 4.34 -2 4 C-1.67 4.66 -1.34 5.32 -1 6 C-0.67 4.02 -0.34 2.04 0 0 Z " fill="#B4B5B5" transform="translate(331,344)"/>
<path d="M0 0 C0.33 0 0.66 0 1 0 C1 7.92 1 15.84 1 24 C0.34 22.68 -0.32 21.36 -1 20 C-1.66 20 -2.32 20 -3 20 C-3.08333357 15.1666528 -2.95261487 10.76307437 -2 6 C-1.67 6 -1.34 6 -1 6 C-0.67 4.02 -0.34 2.04 0 0 Z " fill="#D5D5D5" transform="translate(330,328)"/>
<path d="M0 0 C0.33 0 0.66 0 1 0 C1.80211941 3.36890152 2.17845294 5.46836087 1.06298828 8.79150391 C-0.06575521 12.1984738 -0.40317689 15.13518305 -0.6328125 18.7109375 C-0.75849609 20.57685547 -0.75849609 20.57685547 -0.88671875 22.48046875 C-0.96535156 23.76566406 -1.04398437 25.05085938 -1.125 26.375 C-1.21136719 27.68339844 -1.29773438 28.99179687 -1.38671875 30.33984375 C-1.59822937 33.55950544 -1.80240911 36.77945906 -2 40 C-2.33 40 -2.66 40 -3 40 C-3.50477773 12.62982966 -3.50477773 12.62982966 0 0 Z " fill="#646464" transform="translate(325,364)"/>
<path d="M0 0 C-0.33 0.66 -0.66 1.32 -1 2 C-2.77734375 2.421875 -2.77734375 2.421875 -4.9375 2.75 C-7.10314387 3.16767995 -7.10314387 3.16767995 -9 4 C-10.71455695 6.89029616 -10.71455695 6.89029616 -11 10 C-10.67 10.66 -10.34 11.32 -10 12 C-11.9375 11.3125 -11.9375 11.3125 -14 10 C-14.75 7.375 -14.75 7.375 -15 5 C-10.48631832 1.18073088 -5.90250682 -0.34720628 0 0 Z " fill="#666767" transform="translate(421,854)"/>
<path d="M0 0 C0.99 0.33 1.98 0.66 3 1 C2.52578613 1.38333496 2.05157227 1.76666992 1.56298828 2.16162109 C-0.58396823 3.89823061 -2.72949831 5.63659351 -4.875 7.375 C-5.62136719 7.97828125 -6.36773438 8.5815625 -7.13671875 9.203125 C-8.20986328 10.07324219 -8.20986328 10.07324219 -9.3046875 10.9609375 C-9.96452637 11.49509277 -10.62436523 12.02924805 -11.30419922 12.57958984 C-13.10068642 14.04199945 -13.10068642 14.04199945 -15 16 C-15 13 -15 13 -13.125 10.8125 C-9.01104949 6.97044852 -4.740903 3.03739209 0 0 Z " fill="#E2E5E4" transform="translate(624,752)"/>
<path d="M0 0 C3.55950421 5.33925631 3.18284762 10.39080453 3.1875 16.625 C3.19974609 17.49640625 3.21199219 18.3678125 3.22460938 19.265625 C3.22654297 20.09835937 3.22847656 20.93109375 3.23046875 21.7890625 C3.23457764 22.54912598 3.23868652 23.30918945 3.24291992 24.09228516 C3 26 3 26 1 28 C0.67 18.76 0.34 9.52 0 0 Z " fill="#F2F2F4" transform="translate(736,492)"/>
<path d="M0 0 C0.66 0 1.32 0 2 0 C2 0.66 2 1.32 2 2 C2.94875 2.28875 3.8975 2.5775 4.875 2.875 C8 4 8 4 10 6 C3.60794144 5.27637073 -2.68027076 4.19656638 -9 3 C-9 2.67 -9 2.34 -9 2 C-6.94921875 1.77213542 -4.8984375 1.54427083 -2.84765625 1.31640625 C-0.98859771 1.18113386 -0.98859771 1.18113386 0 0 Z " fill="#C8CAC9" transform="translate(557,148)"/>
<path d="M0 0 C0.33 0 0.66 0 1 0 C1.02708567 1.60407328 1.04643483 3.2082785 1.0625 4.8125 C1.07410156 5.70582031 1.08570313 6.59914063 1.09765625 7.51953125 C1 10 1 10 0 13 C-1.65 13.33 -3.3 13.66 -5 14 C-3.35 9.38 -1.7 4.76 0 0 Z " fill="#242726" transform="translate(700,500)"/>
<path d="M0 0 C1 4 1 4 -0.109375 5.921875 C-0.65078125 6.52515625 -1.1921875 7.1284375 -1.75 7.75 C-2.54664063 8.67039062 -2.54664063 8.67039062 -3.359375 9.609375 C-5 11 -5 11 -8 11 C-5.36 7.37 -2.72 3.74 0 0 Z " fill="#D9DBDE" transform="translate(338,258)"/>
<path d="M0 0 C0.99 0.33 1.98 0.66 3 1 C-0.56430755 4.14985318 -3.40693504 6.5140084 -8 8 C-6.49860488 3.79609368 -3.82724957 2.10889262 0 0 Z " fill="#E3E5E3" transform="translate(708,566)"/>
<path d="M0 0 C0.33 0 0.66 0 1 0 C1 5.28 1 10.56 1 16 C1.66 16 2.32 16 3 16 C2.67 17.32 2.34 18.64 2 20 C1.34 20 0.68 20 0 20 C0 13.4 0 6.8 0 0 Z " fill="#353535" transform="translate(300,357)"/>
<path d="M0 0 C-3.42346555 3.14958831 -6.44262737 3.56179109 -11 4 C-11.33 3.01 -11.66 2.02 -12 1 C-10.37681021 0.63762737 -8.7513642 0.28534843 -7.125 -0.0625 C-6.22007812 -0.25972656 -5.31515625 -0.45695313 -4.3828125 -0.66015625 C-2 -1 -2 -1 0 0 Z " fill="#DDDDDD" transform="translate(381,579)"/>
<path d="M0 0 C5.94 0.99 5.94 0.99 12 2 C12 2.33 12 2.66 12 3 C6.06 3.495 6.06 3.495 0 4 C0 2.68 0 1.36 0 0 Z " fill="#D3D3D3" transform="translate(647,578)"/>
<path d="M0 0 C1.60495567 0.11442461 3.20898119 0.24194694 4.8125 0.375 C5.70582031 0.44460938 6.59914063 0.51421875 7.51953125 0.5859375 C10 1 10 1 13 3 C12.67 3.99 12.34 4.98 12 6 C8 4 4 2 0 0 Z " fill="#E8E8E8" transform="translate(608,853)"/>
<path d="M0 0 C5.02692063 0.45699278 8.14896261 2.99241748 12 6 C11.01 6.33 10.02 6.66 9 7 C6.73828125 5.8203125 6.73828125 5.8203125 4.3125 4.125 C3.50425781 3.57070313 2.69601562 3.01640625 1.86328125 2.4453125 C1.24839844 1.96835937 0.63351562 1.49140625 0 1 C0 0.67 0 0.34 0 0 Z " fill="#E3E3E3" transform="translate(419,765)"/>
<path d="M0 0 C1.0536628 3.16098841 1.21514551 4.00887259 0 7 C-2.0625 8.75 -2.0625 8.75 -4 10 C-4.33 9.01 -4.66 8.02 -5 7 C-4.00390625 5.17578125 -4.00390625 5.17578125 -2.5625 3.3125 C-2.08941406 2.68988281 -1.61632812 2.06726563 -1.12890625 1.42578125 C-0.75636719 0.95527344 -0.38382813 0.48476563 0 0 Z " fill="#DADCE2" transform="translate(616,678)"/>
<path d="M0 0 C2.5625 2.25 2.5625 2.25 5 5 C4.8125 7.3125 4.8125 7.3125 4 9 C2.35 8.01 0.7 7.02 -1 6 C-0.67 4.02 -0.34 2.04 0 0 Z " fill="#888A89" transform="translate(327,352)"/>
<path d="M0 0 C1.21386936 3.64160808 0.6674695 4.33165469 -0.9375 7.6875 C-1.31777344 8.49574219 -1.69804687 9.30398438 -2.08984375 10.13671875 C-2.39019531 10.75160156 -2.69054687 11.36648438 -3 12 C-3.88336837 9.5332355 -4.1312406 8.36140628 -3.22265625 5.859375 C-2.83980469 5.16328125 -2.45695312 4.4671875 -2.0625 3.75 C-1.68222656 3.04359375 -1.30195313 2.3371875 -0.91015625 1.609375 C-0.60980469 1.07828125 -0.30945313 0.5471875 0 0 Z " fill="#F4F4F4" transform="translate(492,494)"/>
<path d="M0 0 C2.79872437 2.52788007 4.45773019 4.20411134 5 8 C4.01 8 3.02 8 2 8 C1.67 7.01 1.34 6.02 1 5 C0.01 5.495 0.01 5.495 -1 6 C-0.67 4.02 -0.34 2.04 0 0 Z " fill="#363737" transform="translate(327,356)"/>
<path d="M0 0 C0.99 0.33 1.98 0.66 3 1 C1.9024777 3.99324263 1.32317108 4.84610901 -1.625 6.25 C-2.40875 6.4975 -3.1925 6.745 -4 7 C-2.79618552 4.50638429 -1.54571278 2.31856917 0 0 Z " fill="#E0E3E4" transform="translate(649,726)"/>
<path d="M0 0 C3.55780196 0.60990891 6.6828589 1.5783681 10 3 C8.375 4.1875 8.375 4.1875 6 5 C2.75 3.625 2.75 3.625 0 2 C0 1.34 0 0.68 0 0 Z " fill="#CDCFCE" transform="translate(620,171)"/>
<path d="M0 0 C0.99 0 1.98 0 3 0 C3.33 1.32 3.66 2.64 4 4 C3.34 4 2.68 4 2 4 C2 4.99 2 5.98 2 7 C1.34 7 0.68 7 0 7 C0 4.69 0 2.38 0 0 Z " fill="#CECECE" transform="translate(302,364)"/>
<path d="M0 0 C-1 3 -1 3 -2.8125 4.25 C-5.33943414 5.11637742 -6.52221994 4.88492145 -9 4 C-3.375 0 -3.375 0 0 0 Z " fill="#E1E3E2" transform="translate(409,170)"/>
<path d="M0 0 C3.465 1.98 3.465 1.98 7 4 C7 4.66 7 5.32 7 6 C7.66 6.33 8.32 6.66 9 7 C5.13066838 6.42676569 2.84777943 4.61046448 0 2 C0 1.34 0 0.68 0 0 Z " fill="#E0E0E0" transform="translate(663,197)"/>
<path d="M0 0 C-2.5654594 2.5654594 -4.47686668 2.54046087 -8 3 C-8 2.34 -8 1.68 -8 1 C-4.93251126 -0.86240388 -3.40254489 -1.2151946 0 0 Z " fill="#DDE0DF" transform="translate(598,774)"/>
<path d="M0 0 C0.66 0 1.32 0 2 0 C0.68775452 3.93673644 -0.91910327 6.22719294 -4 9 C-2.25 2.25 -2.25 2.25 0 0 Z " fill="#F1F1F1" transform="translate(611,565)"/>
<path d="M0 0 C2.97 0.33 5.94 0.66 9 1 C8.67 1.66 8.34 2.32 8 3 C5.36 2.67 2.72 2.34 0 2 C0 1.34 0 0.68 0 0 Z " fill="#D6D6D6" transform="translate(624,391)"/>
<path d="M0 0 C0.66 0 1.32 0 2 0 C1.67 2.64 1.34 5.28 1 8 C0.34 8 -0.32 8 -1 8 C-0.67 5.36 -0.34 2.72 0 0 Z " fill="#D5D5D5" transform="translate(642,602)"/>
<path d="M0 0 C2.97 1.98 2.97 1.98 6 4 C5.67 4.99 5.34 5.98 5 7 C2.5 5.1875 2.5 5.1875 0 3 C0 2.01 0 1.02 0 0 Z " fill="#D8D9DA" transform="translate(337,517)"/>
<path d="M0 0 C0.66 0 1.32 0 2 0 C2 1.65 2 3.3 2 5 C0.35 5.33 -1.3 5.66 -3 6 C-2.01 4.02 -1.02 2.04 0 0 Z " fill="#191B1A" transform="translate(698,508)"/>
</svg>
